<?xml version="1.0" encoding="UTF-8"?>
<svg data-bbox="-1.4 -2.6 168.5 169.9" viewBox="0 0 165 165" xmlns="http://www.w3.org/2000/svg" data-type="color">
    <g>
        <path fill="#75b0a4" d="M167.1-2.6v169.9H-1.4V-2.6h168.5z" data-color="1"/>
        <path d="M56.6 99.8h-5.7V61.9h17.4c4.3 0 7.7 1 10.2 3 2.6 2.1 4 5.1 4 8.8 0 10.4-9.2 11.9-14.7 11.9H56.6v14.2zm0-19.8h11.2c7.9 0 8.9-3.4 8.9-6.4 0-2-.6-3.5-1.9-4.5-1.5-1.1-3.7-1.7-6.7-1.7H56.6V80z" fill="#ffffff" data-color="2"/>
        <path fill="#ffffff" d="M115.3 99.8H86.8V61.9h5.7v32.3h24.8l-2 5.6z" data-color="2"/>
        <path fill="#ffffff" d="M27.4 72.5 19 79.2V61.9h-5.8v37.9H19V86.4l7.7-6.1 15.9 19.5h7.3L27.4 72.5z" data-color="2"/>
        <path fill="#ffffff" d="M50.2 61.9H41l-9.6 7.5 3.6 4.4 15.2-11.9z" data-color="2"/>
        <path d="M144.7 83.2c4.4-1.7 6.8-5.2 6.8-10.1 0-3.6-1.3-6.4-3.9-8.4-2.4-1.9-5.8-2.8-10-2.8h-14.1l4.7 5.6h9.2c3 0 5.2.5 6.6 1.6 1.2.9 1.8 2.2 1.8 4 0 2.6-1 3.7-1.8 4.2-1.4 1-3.7 1.5-6.8 1.5H126v-6.3l-5.7-6.7v33.9h5.7V84.4h12.9l8.9 15.4h6.6l-9.7-16.6z" fill="#ffffff" data-color="2"/>
    </g>
</svg>
